<svg version="1.2" xmlns="http://www.w3.org/2000/svg" viewBox="0 0 412 622" width="412" height="622">
	<title>BACKGROUND-svg</title>
	<style>
		.s0 { fill: #a7cefc } 
	</style>
	<g id="Layer" style="opacity: .2">
		<path id="Layer" fill-rule="evenodd" class="s0" d="m410.7 189.9c1.6 6 1.4 13.7-0.7 24.4-5.9 28.6-36.9 64.7-69.7 102.8-18 20.9-36.6 42.6-51.1 63.2-27.6 31.8-40.5 76.7-53.1 120.1-9.1 31.7-17.7 61.7-31.6 86.9-11 19-23.5 29.9-38.4 33.3-29 6.6-62.7-16.5-101.6-43.3l-3.8-2.6c-29-19.8-67.2-44.2-123.8-79.2l-4.7-3.1c-49.3-31.6-110.7-71.1-157.6-131-102.9-117.4-83-249.7-37.1-302.1 54.9-56.5 125.1-71.7 268.7-58.2 149.7 14.2 285.1 98.5 336.3 134 17.9 15.4 32.4 24.2 43 30.5 13.5 8.1 22.2 13.4 25.2 24.3zm-211.2 394.9c13.6-24.6 22.1-54.3 31.2-85.7 12.7-43.9 25.8-89.4 54-121.9 14.5-20.7 33.3-42.4 51.3-63.4 32.3-37.6 62.9-73.1 68.5-100.3 5.2-26.8-1.7-31-22.1-43.3-10.8-6.4-25.6-15.3-43.6-30.8-50.6-35.1-185-118.8-333.3-132.9-141.5-13.3-210.6 1.4-263.9 56.4-44.5 50.8-63.6 179.9 37.4 295.1 46.4 59.3 107.3 98.5 156.3 130l4.7 2.9c56.7 35.1 95 59.5 124 79.4l3.7 2.6c37.9 26.1 70.6 48.5 97.1 42.5 13.3-3.1 24.6-13.1 34.7-30.6z"/>
		<path id="Layer" fill-rule="evenodd" class="s0" d="m374.8 208.2c2.2 8.3 1.8 17.8 0.1 31.1v0.3c-5.9 26.4-30.3 52.5-56 80.1-17.6 18.9-35.8 38.4-50.4 60-24.6 31.4-40.8 67-56.5 101.4-10.5 23.1-20.4 45-32.5 65l-0.3 0.3c-36.8 43.9-62.9 26.5-110.2-5.1-5.2-3.4-10.6-7.1-16.4-10.8-10.1-7.7-21.3-15.8-33.1-24.4-52.7-38.2-124.8-90.6-194.1-173.3-77.1-103-67.6-201.1-24-252.7 45.9-52.3 117-55.8 240.6-44 125.9 15.5 221.9 79.7 273.4 114.2l5.8 3.8c35 26.5 49.3 38.1 53.6 54.1zm-5.4 30.5c4.5-36.5-0.2-41.2-51.6-80.3l-5.6-3.7c-51.2-34.2-146.5-97.9-270.9-113.2-121.5-11.7-191.3-8.4-235.5 41.9-42.2 50-51.2 145.4 24.2 246.1 68.7 82 140.5 134.1 193 172.3 11.8 8.6 23 16.7 33 24.3 5.6 3.7 11.1 7.3 16.3 10.7 47.4 31.6 69.1 46.1 102.4 6.4 11.9-19.6 21.7-41.3 32.2-64.1 15.7-34.7 32.1-70.6 57-102.5 14.7-21.7 33.1-41.4 50.8-60.4 25.2-27 49-52.6 54.7-77.5z"/>
		<path id="Layer" fill-rule="evenodd" class="s0" d="m345 223.8c2.8 10.5 1.5 21.4-2 35.4-7.3 23.8-29.5 47.3-53 72.2-13.9 14.7-28.3 30-40.9 46.4-20.2 23.8-36 49.7-51.4 74.7-12.6 20.5-24.4 39.9-37.6 56.2l-0.3 0.2c-36 35.6-62.6 16-110.8-19.7l-0.5-0.4-8.3-6.8c-46.8-38.6-111-91.5-168.8-172.1-63.6-96.3-45.7-173.3-11.1-209.9 36.9-39.2 98.1-48.4 211.2-31.8 79.2 12.9 156.6 47.9 230.2 103.9 26.7 22.1 39.2 36.6 43.3 51.7zm-189.3 281.6c12.9-16.1 24.7-35.2 37.1-55.6 15.4-25.2 31.4-51.3 51.9-75.2 12.6-16.6 27.1-31.9 41.2-46.8 23-24.4 44.7-47.4 51.7-69.9 7.9-31.9 3.9-45.7-39.6-81.6-72.8-55.4-149.3-90-227.5-102.8-111-16.2-170.7-7.6-206.1 30.1-35.9 38-46.3 115.6 11.7 203.3 57.3 79.9 121.1 132.6 167.8 171l8.6 7c48.5 35.9 70.7 52.4 103.2 20.5z"/>
		<path id="Layer" fill-rule="evenodd" class="s0" d="m317.1 235.3c3.2 11.8 1.9 24-3.1 38.6v0.1c-8.4 22.2-29.4 43.9-51.7 66.9-10.3 10.7-21 21.7-30.9 33.2-14.7 15.8-27.8 32.4-40.4 48.4-15.5 19.8-30.2 38.4-45.6 52.2-33.3 25.8-59.1 8.1-97.7-24.1-37.4-33.7-92-86.8-135-158.2-35.7-69.6-37.8-128.3-5.9-165.5 34.3-40.2 102.9-50.9 188.3-29.4 99 20 168.6 74.8 187.6 91.2 19.4 17.5 30.4 31.8 34.4 46.6zm-8.4 37c9.3-27.2 7.2-46.1-29.9-79.6-18.7-16.1-87.4-70.2-185.1-89.9-83.3-21-149.8-11-182.6 27.5-30.3 35.4-28 92.1 6.6 159.6 42.6 70.6 96.8 123.3 133.8 156.7 39.8 33.1 61.7 46.3 90.4 24.1 14.8-13.3 29.3-31.8 44.7-51.3 12.7-16.2 25.8-32.9 40.7-48.8 9.8-11.5 20.6-22.6 31-33.3 21.8-22.6 42.4-43.9 50.4-65z"/>
		<path id="Layer" fill-rule="evenodd" class="s0" d="m291.3 244.5c3.4 12.5 2 25.2-3.8 39.6l-0.2 0.4c-36.2 58.8-132.7 142.6-151.7 158.9l-0.4 0.3c-29 16.4-52.2 3-84.9-27.4-29.4-29-70.7-76.2-100.3-136.6-25.3-56.1-24.1-103.5 3.5-133.6 30.7-33.4 88.8-41.3 159.5-21.7 67.3 16 122.2 51.3 151.1 79.1 14.8 14.6 23.7 27.7 27.2 41zm-8.9 37.5c10.9-27.5 4.8-47.7-22.4-74.6-28.3-27.3-82.2-62-148.6-77.7-67.6-18.8-125-11.3-153.7 19.9-26.1 28.4-27 73.8-2.5 127.8 29.2 59.6 70 106.3 99.2 135 31.2 29.1 51.9 41.3 77.8 26.8 54.4-46.6 122.4-112.3 150.2-157.2z"/>
		<path id="Layer" fill-rule="evenodd" class="s0" d="m267.6 253.2c3.6 13.4 2.1 26.2-4.6 37.4-26.2 44.7-91.6 101.5-133.9 124.4-10 4.5-20.9 4.7-32.4 0.7-35.5-12.5-77.7-66.4-112.9-144.3-17-44.7-13.3-82.4 10.4-106.3 26.9-27.1 75-32.8 131.9-15.8 72.3 22.6 124.4 59 139.3 97.2q1.3 3.3 2.2 6.7zm-284.1-0.9q2.2 8.3 5.5 16.9c34.6 76.5 75.6 129.4 109.7 141.3 10.2 3.6 19.5 3.5 27.9-0.4 41.5-22.4 105.8-78.2 131.5-122.1 6.9-11.6 7.6-25.3 2-39.6-14.3-36.7-65.1-71.9-135.8-94-54-16.1-101.1-10.8-126 14.3-19.1 19.3-24.2 48.5-14.8 83.6z"/>
		<path id="Layer" fill-rule="evenodd" class="s0" d="m244.2 258.1c3.3 12.5 2.1 24.5-3.8 35.3-20.7 38.2-74.3 82.8-114.7 95.3-37.6 10.3-84.4-41.1-111.4-122.2-10.2-34.9-5-64.2 15-82.7 22.9-21.2 61.4-25.3 105.7-11.4 54 17.5 93.9 46.8 106.8 78.5q1.4 3.7 2.4 7.2zm-120 125.5c39.1-12.2 91.1-55.5 111.2-92.7 6.2-11.3 6.6-24.4 1.1-37.9-12.3-30.2-50.9-58.4-103.4-75.4-42.2-13.3-78.7-9.6-100 10.1-18.3 17-23.2 44.3-13.4 77.1 25.6 76.9 70.5 128 104.5 118.8z"/>
		<path id="Layer" fill-rule="evenodd" class="s0" d="m221.8 262.2c3 10.8 2.1 21.5-2.7 31.1-16.5 33.9-59.6 66.4-94.2 71.1-33.3 3.9-69.7-40-82.9-99.7-5.4-26.4 0.7-48.5 17-62.3 18.7-15.8 48.3-18.8 81.3-8.1 38.6 12.7 68.1 35.2 78.8 60.2 1.2 2.5 2.1 5.1 2.7 7.7zm-172 10.4c14 52.4 45.8 89.8 74.5 86.4 32.3-4.4 74.2-36.1 89.8-67.9 5.1-10.5 5-22.4-0.1-34.5-10.2-23.6-38.5-45-75.6-57.2-31-10.1-58.6-7.5-75.8 7-14.7 12.5-20 32.8-15.1 57.1 0.7 3 1.5 6.1 2.3 9.1z"/>
		<path id="Layer" fill-rule="evenodd" class="s0" d="m200.4 265.7c2.3 8.7 1.8 17.4-1.6 25.4-11.7 27.9-44.3 50.5-72.6 50.5-28.1-0.3-53.9-33.8-58.8-76.3-2-18.8 3.9-34.6 16.5-44.4 14.3-11.2 35.7-13.3 58.7-5.9 26.2 8.6 46.2 24.2 54.9 42.8 1.2 2.6 2.2 5.2 2.9 7.9zm-74 70.4c25.7 0.1 56.5-21.4 67.2-46.9 3.9-9.1 3.4-19.1-1.3-29.1-7.9-17.1-27.2-32-51.6-40-21.1-6.8-40.5-5-53.3 4.9-11.1 8.6-16.2 22.7-14.3 39.6 4.4 39.2 28.4 71.3 53.3 71.5z"/>
		<path id="Layer" fill-rule="evenodd" class="s0" d="m179.6 268.9c1.6 6.1 1.5 12.4-0.6 18.4-7.1 20.3-29.6 35-50.2 32.7-20.6-2.3-37.6-25.7-37.9-52.1-0.2-12.2 4.7-22.5 13.6-28.9 9.8-7 23.6-8.4 37.9-4 19.5 6.2 33.3 19.4 37.2 33.9zm-5.9 16.8c6-17.5-8.8-37.9-33.2-45.6-12.4-3.9-24.4-2.7-32.7 3.3-7.4 5.2-11.4 13.9-11.3 24.3 0.3 23.9 15.2 44.9 33.1 46.9 18.1 2 37.9-10.9 44.1-28.9z"/>
		<path id="Layer" fill-rule="evenodd" class="s0" d="m159.2 272.4c0.9 3.3 1 6.7 0.1 10.1-3.1 11.5-15.2 19.1-27.1 16.9-11.8-2.3-20.5-14.7-19.4-27.7 0.6-6.2 3.6-11.5 8.5-14.8 5.3-3.4 12.2-4.3 19.1-2.3 9.7 2.8 16.7 9.8 18.8 17.8zm-40.1 7.3c2 7.2 7.5 13.1 14.3 14.4 9 1.7 18.1-4 20.4-12.8 2.4-8.8-4.5-18.4-15.1-21.5-5.4-1.5-10.4-1-14.3 1.6-3.5 2.4-5.6 6.1-6 10.7-0.2 2.6 0.1 5.2 0.7 7.6z"/>
	</g>
</svg>